# xmcd CD database file
#
# Track frame offsets:
#	150
#	16550
#	38300
#	54685
#
# Disc length: 1016 seconds
#
# Revision: 3
# Processed by: cddbd v1.5.1PL0 Copyright (c) Steve Scherf et al.
# Submitted via: CDex 1.51
#
DISCID=1e03f604
DTITLE=ベ・ユミeufonius - フタコイ オルタナティブ
DYEAR=2005
DGENRE=Anime
TTITLE0=New World
TTITLE1=ぼくらの時間
TTITLE2=New World(off vocal)
TTITLE3=ぼくらの時間(off vocal)
EXTD=YEAR: 2005
EXTT0=
EXTT1=
EXTT2=
EXTT3=
PLAYORDER=
